<?xml version="1.0" encoding="UTF-8"?>
<svg id="Layer_1" data-name="Layer 1" xmlns="http://www.w3.org/2000/svg" viewBox="0 0 32 32">
  <path d="M30,9c-6.04-.3-12.38-3.07-14-6.99-1.37,3.3-4.94,5.27-10,6.99l1-3c-3.79,0-6.22,5.83-1,11,0,0-1-5,1-5s1,3,1,3c1.08,1.39,2.08,3.38,3,5,4,1,5,4,5,4,0,0-2-1-3.27-1,1.07,2.17,2.15,4.45,3.27,7,1.42-3.45,2.68-6.34,3.88-8.82-3.85-1.23-8.88-4.68-8.88-8.68s5-5.5,5-5.5c.26,4.25,3.96,2.98,6,7h-3s2,2,2,2h-6c.93,1.34,3.68,2.44,5.91,3.15,2.76-5.24,5.34-8.21,9.1-10.15Z"/>
  <path d="M15,11c-2,0-3,1.5-3,1.5,0,0,1,1.5,3,1.5s3-1.5,3-1.5c0,0-1-1.5-3-1.5Z"/>
</svg>