<?xml version="1.0" encoding="UTF-8"?>
<svg id="Layer_1" data-name="Layer 1" xmlns="http://www.w3.org/2000/svg" viewBox="0 0 32 32">
  <path d="M25.68,10.06c-2.27-3.12-5.86-4.97-9.71-5.05l2.03-1.01-2-2-5.94,4.32c-3.12,2.27-4.97,5.86-5.05,9.71l-1.01-2.03-2,2,4.32,5.94c2.27,3.12,5.86,4.97,9.71,5.05l-2.03,1.01,2,2,5.94-4.32c3.12-2.27,4.97-5.86,5.05-9.71l1.01,2.03,2-2-4.32-5.94ZM16,25c-4.96,0-9-4.04-9-9S11.04,7,16,7s9,4.04,9,9-4.04,9-9,9Z"/>
  <path d="M15.71,14.89c-.84-2.26-2.21-3.68-4.13-4.32-1.57,1.28-2.58,3.24-2.58,5.42h5.01c1.54,3.54,4.98,4.04,7.69,4.05.43-.61.77-1.28.99-2.01-3.2.08-5.9-.21-6.99-3.15Z"/>
  <path d="M16,9c-.81,0-1.58.14-2.3.4,2.06.51,4.33,1.87,5.62,2.95-.8.36-1.32.97-1.32,1.66,0,1.1,1.34,2,3,2,.76,0,1.45-.19,1.97-.5-.26-3.63-3.28-6.5-6.97-6.5Z"/>
  <path d="M12,19c-.75,0-1.47.12-2.15.34,1.19,2.18,3.5,3.66,6.15,3.66.75,0,1.47-.12,2.15-.34-1.19-2.18-3.5-3.66-6.15-3.66Z"/>
</svg>